<svg width="505" height="253" viewBox="0 0 505 253" fill="none" xmlns="http://www.w3.org/2000/svg">
    <path d="M520.246 143.184c-4.164 27.438-24.221 49.681-44.797 49.681-20.575 0-33.878-22.243-29.713-49.681 4.164-27.439 24.221-49.682 44.796-49.682 20.576 0 33.878 22.243 29.714 49.682z" fill="#1E272E"/>
    <path d="M461.903 189.182c12.314 7.094 27.926 9.053 39.258 8.323 5.928-.383.703-14.627.511-14.696-.192-.069-15.833-3.573-17.813-3.023-1.98.551-17.494 6.181-17.494 6.181s-7.29 1.588-4.459 3.217l-.003-.002zM247.422 191.742c-4.096 30.815-27.599 55.794-52.491 55.794-24.893 0-41.752-24.981-37.656-55.794 4.095-30.815 27.598-55.793 52.49-55.793 24.893 0 41.752 24.981 37.657 55.793z" fill="#1E272E"/>
    <path d="M565.121 77.621c-1.087-6.323-2.851-12.882-6.7-18.131a21.529 21.529 0 0 0-7.251-6.3c-1.705-.908-3.503-1.614-5.343-2.201-12.665-4.814-35.546-10.772-46.59-13.546a298.111 298.111 0 0 0-4.457-2.406 299.31 299.31 0 0 0-42.846-18.493C397.409-2.121 337.901-3.461 281.302 4.947a367.353 367.353 0 0 0-47.217 10.23 363.535 363.535 0 0 0-45.803 16.513c-11.75 5.15-24.846 11.508-35.971 17.905-8.959 1.104-16.261 1.991-25.104 3.815-18.185 3.75-36.097 8.984-53.396 15.733-15.145 5.91-29.977 13.207-42.728 23.398-12.218 9.766-22.16 22.182-27.367 37.04-4.45 12.696-4.103 26.178-1.538 41.149 0 0-.438 1.406-.415 2.858.064 4.186 2.54 7.806 5.259 10.809 10.584 11.695 51.912 33.953 69.015 38.716 17.491 4.871 35.632 7.323 53.77 7.773 53.108 1.322 107.694-8.449 160.003-16.755 57.92-9.199 114.646-22.534 171.628-35.691l27.527-6.311c18.729-4.158 39.602-7.614 56.378-16.886.265-.148.646-.352.804-.445 5.544-3.264 10.471-7.365 13.388-13.354 2.991-6.147 3.719-13.082 4.556-19.776.907-7.27 1.773-14.556 2.122-21.877.352-7.402.165-14.861-1.094-22.175l.002.005z" fill="#1B9472"/>
    <path d="M413.892 15.362c-.827-2.578-8.462-5.213-33.327-9.845C356.474 1.032 340.909.238 338.218.13c-.089-.005-.177-.007-.263-.01-.101-.002-.153-.005-.153-.005A25.93 25.93 0 0 0 336.42.11c-18.502.44-36.965 2.131-55.13 4.83a366.024 366.024 0 0 0-17.017 2.939c9.052.695 18.566 2.209 28.15 3.976 9.782 1.804 19.732 3.566 29.455 5.692 4.737 1.037 9.344 2.11 13.629 3.079 0 0 2.541.617 6.13 1.347 4.068.857 7.674 1.518 10.599 1.82 4.4.578 8.55.822 10.83.192 16.628-4.585 38.028-6.478 43.363-6.903 5.335-.422 8.287.855 7.46-1.723l.003.003zM152.338 50.156c-1.343 1.472-1.227 3.7-.276 5.355 1.208 2.096 3.228 3.31 5.286 4.438a299.862 299.862 0 0 0 12.292 6.375 260.196 260.196 0 0 0 23.49 10.059c8.663 3.227 17.469 6.055 26.3 8.785 4.843 1.497 9.679 3.053 14.574 4.375 4.646 1.253 9.398 2.29 14.21 2.622 4.469.307 8.813-.285 13.004-1.895 4.152-1.594 8.026-4.099 10.845-7.571a21.201 21.201 0 0 0 1.811-2.608c.152-.258-.249-.491-.401-.233-4.482 7.601-13.78 11.887-22.426 11.938-4.698.028-9.389-.842-13.942-1.939-4.648-1.118-9.209-2.577-13.777-3.976-8.81-2.696-17.604-5.456-26.279-8.562-7.768-2.782-15.423-5.87-22.903-9.358a275.6 275.6 0 0 1-11.649-5.78 263.478 263.478 0 0 1-6.152-3.313c-1.983-1.11-4.069-2.873-4.482-5.23-.197-1.123.017-2.295.8-3.153.201-.221-.126-.548-.328-.327l.003-.002zM151.44 144.619a73.623 73.623 0 0 1 6.43 4.677 76.06 76.06 0 0 1 15.865 17.679 74.83 74.83 0 0 1 4.388 7.764c.131.267.532.034.401-.234a74.41 74.41 0 0 0-3.898-6.994 76.577 76.577 0 0 0-9.871-12.543 75.995 75.995 0 0 0-12.242-10.197 55.56 55.56 0 0 0-.842-.553c-.25-.162-.484.239-.233.401h.002zM1.35 162.999c1.153-.411 2.319-.799 3.507-1.089 1.235-.3 2.509-.464 3.776-.555a27.519 27.519 0 0 1 7.76.545 25.7 25.7 0 0 1 4.125 1.261c.278.111.399-.337.123-.447-2.425-.973-5-1.556-7.603-1.784-2.597-.229-5.266-.118-7.82.422-1.36.288-2.688.735-3.996 1.2-.28.1-.16.548.123.447h.004zM49.533 178.219c4.829 1.904 9.59 3.981 14.225 6.32 4.157 2.099 8.213 4.409 12.072 7.014 3.53 2.384 6.895 5.019 9.977 7.958 2.915 2.779 5.571 5.831 7.854 9.149a53.491 53.491 0 0 1 6.132 11.833c.103.278.551.158.448-.123a54.165 54.165 0 0 0-5.372-10.742c-2.195-3.376-4.767-6.502-7.613-9.351-3.008-3.012-6.317-5.716-9.8-8.166-3.805-2.676-7.82-5.045-11.944-7.193-4.558-2.374-9.256-4.48-14.018-6.412-.613-.248-1.225-.491-1.838-.735-.278-.11-.398.339-.123.448zM114.773 222.538a11.119 11.119 0 0 0 5.421-.723c1.68-.671 3.213-1.742 4.342-3.162a9.365 9.365 0 0 0 1.488-2.672c.101-.282-.35-.403-.448-.123-1.183 3.34-4.381 5.584-7.805 6.154-.989.165-1.999.182-2.996.061-.295-.034-.292.428 0 .465h-.002zM123.015 176.798l-2.085-9.427-.591-2.667c-.064-.292-.511-.167-.447.123.693 3.143 1.389 6.284 2.085 9.427l.591 2.667c.064.292.511.167.447-.123zM459.596 180.202c8.619-2.069 8.263-6.699 9.608-21.752.652-7.294 13.376-17.075 15.531-15.266 2.155 1.809 11.78 3.819 9.049 19.127-2.73 15.308-1.436 22.265-7.182 23.504-5.746 1.236-27.006-5.611-27.006-5.611v-.002z" fill="#1E272E"/>
    <path d="M333.778 35.253c8.021-3.87 16.34-7.11 24.853-9.722a186.203 186.203 0 0 1 27.151-6.141 190.285 190.285 0 0 1 28.956-2.07c10.122.05 20.239.902 30.225 2.549a193.858 193.858 0 0 1 34.181 8.913c.283.101.403-.346.123-.447a195.018 195.018 0 0 0-30.831-8.328 192.195 192.195 0 0 0-30.176-3.1 190.884 190.884 0 0 0-29.185 1.559 187.627 187.627 0 0 0-27.45 5.691 177.868 177.868 0 0 0-25.173 9.324c-.974.448-1.946.907-2.91 1.374-.268.13-.034.531.234.4l.002-.002z" fill="#1E272E"/>
    <path d="M500.807 51.37c-.128.84-.628 1.624-1.26 2.337-.056.035-.11.074-.165.108-14.313 9.415-31.575 12.998-48.405 16.227a2576.487 2576.487 0 0 1-161.393 25.694c-.94.12-1.879.24-2.819.356-2.703.34-6.208.224-7.175-2.317-.713-1.878.512-3.888 1.71-5.503a165.039 165.039 0 0 1 2.405-3.157c15.019-19.226 34.385-35.035 56.21-45.957 1.963-.983 3.946-1.919 5.948-2.816 12.869-5.76 26.523-9.734 40.45-11.907a166.575 166.575 0 0 1 42.106-1.152c14.013 1.393 27.854 4.56 41.053 9.471a157.686 157.686 0 0 1 19.284 8.678c2.539 1.356 5.166 2.693 7.589 4.256 1.773 1.143 4.838 3.185 4.462 5.682z" fill="#524F73"/>
    <path d="m325.882 47.99-2.59 7.408c-.804 2.298-1.609 4.595-2.413 6.896l-1.52 4.345c-.098.282.349.403.448.123l2.59-7.408 2.413-6.895 1.52-4.345c.098-.283-.349-.403-.448-.123zM381.959 40.999c1.302.192 2.591.464 3.867.784 1.186.295 2.396.612 3.498 1.148a7.612 7.612 0 0 1 1.963 1.344c.216.206.543-.12.327-.327-.984-.946-2.204-1.563-3.49-1.99-1.272-.423-2.583-.74-3.894-1.013a35.089 35.089 0 0 0-2.148-.389c-.292-.044-.418.404-.123.448v-.005zM331.112 60.507c.617-1.519 1.207-3.047 1.852-4.556a84.312 84.312 0 0 1 2.373-5.058c1.545-3.055 3.309-6.168 6.317-8.002 1.941-1.182 4.125-1.941 6.329-2.455.29-.069.167-.516-.123-.447-2.015.47-3.987 1.15-5.805 2.14a13.07 13.07 0 0 0-4.009 3.4c-1.095 1.378-1.966 2.914-2.77 4.474a86.321 86.321 0 0 0-2.484 5.193c-.746 1.715-1.42 3.458-2.123 5.19-.113.278.337.396.448.123l-.005-.002zM496.345 45.688c-2.423-1.56-5.048-2.9-7.589-4.257a157.323 157.323 0 0 0-19.284-8.677c-13.199-4.91-27.04-8.08-41.053-9.471a166.725 166.725 0 0 0-36.798.412c2.032 10.307 4.059 20.617 6.088 30.924 1.063 5.394 2.039 10.815 3.203 16.19.575 2.662 1.281 5.404 2.445 7.908a2589.266 2589.266 0 0 0 47.62-8.675c16.827-3.229 34.092-6.812 48.405-16.227.055-.034.111-.074.165-.108.632-.713 1.134-1.5 1.26-2.337.376-2.497-2.689-4.54-4.462-5.682z" fill="#1E272E"/>
    <path d="M400.368 55.415a498.49 498.49 0 0 0-5.392-23.821 527.464 527.464 0 0 0-2.098-8.049c-1.899-.076-3.697.26-5.465.723a472.612 472.612 0 0 1 2.604 10.09 501.567 501.567 0 0 1 5.267 23.849 503.506 503.506 0 0 1 3.675 21.265c1.83-.31 3.66-.624 5.49-.941a499.687 499.687 0 0 0-4.079-23.116h-.002zM479.505 41.898a419.147 419.147 0 0 0-3.65-8.606 175.74 175.74 0 0 0-5.303-1.83 416.07 416.07 0 0 1 12.549 31.75l3.995-1.408a388.064 388.064 0 0 0-1.68-4.686 418.93 418.93 0 0 0-5.911-15.22z" fill="#1B9472"/>
    <path d="M389.494 18.618a616.697 616.697 0 0 1 6.641 31.894 587.992 587.992 0 0 1 4.878 32.052 574.399 574.399 0 0 1 4.309 63.739 589.318 589.318 0 0 1-.681 36.135c-.015.298.45.298.465 0 .528-10.774.774-21.56.715-32.346a574.284 574.284 0 0 0-3.908-63.926 586.767 586.767 0 0 0-4.607-31.7 610.525 610.525 0 0 0-7.362-35.97c-.069-.29-.517-.168-.448.122h-.002zM484.609 61.487c1.095.519 2.003 1.386 2.728 2.34a9.742 9.742 0 0 1 1.673 3.332c.772 2.839.369 5.835-.069 8.693-.47 3.064-.972 6.124-1.501 9.179a464.808 464.808 0 0 1-1.692 9.2 487.398 487.398 0 0 1-2.108 10.251c-.064.29.384.416.448.123a481.632 481.632 0 0 0 1.921-9.287c.61-3.101 1.188-6.21 1.734-9.324a462.98 462.98 0 0 0 1.545-9.356c.45-2.907.932-5.905.351-8.83-.489-2.462-1.928-4.878-4.038-6.291a5.97 5.97 0 0 0-.758-.43c-.268-.128-.504.273-.234.4z" fill="#1E272E"/>
    <path d="M268.715 209.134c11.593-1.968 23.161-4.094 34.717-6.269a4348.163 4348.163 0 0 0 42.485-8.228 5707.372 5707.372 0 0 0 45.079-9.132 4609.033 4609.033 0 0 0 43.083-9.11c11.858-2.571 23.709-5.19 35.526-7.95 1.212-.283 2.423-.568 3.635-.855.291-.069.168-.517-.123-.448-11.442 2.711-22.922 5.267-34.411 7.774a4288.677 4288.677 0 0 1-42.328 8.999 5734.194 5734.194 0 0 1-45.069 9.179 4629.14 4629.14 0 0 1-43.223 8.422c-11.922 2.261-23.854 4.473-35.814 6.54-1.227.211-2.455.422-3.682.631-.295.049-.17.497.123.447h.002zM127.928 213.686c-.588 3.278-3.757 6.385-7.503 4.856-1.82-.742-3.084-2.246-3.925-3.878-2.824-5.483-3.961-11.863-5.294-17.775a157.23 157.23 0 0 1-3.045-18.634c-.103-1.007-.216-2.02-.263-3.032-.042-.946-.008-1.915.3-2.824.967-2.851 4.487-3.664 7.328-2.983 8.508 2.039 8.968 11.978 9.775 18.471l1.616 13.02.811 6.534c.256 2.065.571 4.178.202 6.245h-.002z" fill="#1E272E"/>
    <path d="M118.893 209.616a179.352 179.352 0 0 1-1.897-8.208 290.072 290.072 0 0 1-3.126-17.8 172.195 172.195 0 0 1-.534-4.038c-.192-1.624-.317-3.364.364-4.898.286-.641.701-1.241 1.267-1.666.359-.27.809-.396 1.245-.474 1.244-.226 2.592-.044 3.761.427.324.131.637.295.932.48.253.157.487-.244.234-.401-1.188-.74-2.62-1.086-4.017-1.054-.556.012-1.127.081-1.658.258-.526.177-.957.489-1.331.902-1.062 1.172-1.417 2.787-1.417 4.327 0 1.541.266 3.09.473 4.613a261.14 261.14 0 0 0 1.355 8.847 290.673 290.673 0 0 0 1.729 9.29 191.12 191.12 0 0 0 1.924 8.564l.243.956c.074.29.524.168.448-.122l.005-.003z" fill="#524F73"/>
    <path d="M2.08 171.433c1.614 2.128 3.557 4.001 5.534 5.788 2.701 2.438 5.55 4.711 8.454 6.9 7.09 5.351 14.552 10.224 22.23 14.689 7.873 4.579 16.024 8.607 24.496 11.961a162.013 162.013 0 0 0 26.066 7.864c9.322 1.979 18.787 3.197 28.262 4.156 1.301.133 2.602.258 3.906.381.298.027.295-.435 0-.465-9.664-.911-19.324-2.025-28.858-3.873-8.779-1.7-17.41-4.072-25.793-7.183-8.599-3.19-16.905-7.078-24.902-11.563a228.611 228.611 0 0 1-22.438-14.347c-3.118-2.266-6.18-4.618-9.113-7.12-2.23-1.902-4.425-3.887-6.353-6.099-.374-.43-.738-.868-1.083-1.322-.177-.236-.58-.005-.4.233H2.08z" fill="#1E272E"/>
    <path d="M2.282 171.318c2.7-5.085 6.64-6.773 9.497-6.687 2.403.071 5.805 1.545 8.004 2.732 15.356 8.28 27.97 14.854 42.959 22.836 4.752 2.529 9.327 5.67 13.346 9.631 4.02 3.962 7.68 11.678 8.777 17.672 0 0-15.177-3.126-31.234-10.904-16.057-7.778-33.88-19.127-43.082-27.227-6.339-5.581-8.267-8.053-8.267-8.053z" fill="#1E272E"/>
    <path d="M77.227 215.733c-8.95-2.241-16.59-5.272-24.118-8.916-16.06-7.778-33.875-19.147-43.077-27.249-1.827-1.608-4.238-3.908-5.992-5.78 2.317-.421 4.519-.694 5.786-.706 2.725-.022 4.9.828 6.89 1.902 13.892 7.489 26.346 14.593 39.758 22.226 4.231 2.409 8.519 5.468 12.282 8.921 2.46 2.259 5.712 6.046 8.471 9.602z" fill="#524F73"/>
    <path d="M17.431 110.535a120.862 120.862 0 0 0 12.56 11.061 121.286 121.286 0 0 0 14.23 9.337c5.24 2.941 10.687 5.507 16.258 7.758 6.169 2.492 12.493 4.598 18.893 6.409 7.124 2.018 14.348 3.674 21.616 5.083.967.186 1.934.368 2.9.548.293.054.419-.394.123-.448-7.389-1.364-14.738-2.971-21.992-4.932-6.447-1.745-12.823-3.77-19.053-6.176-5.682-2.192-11.244-4.706-16.606-7.599a122.638 122.638 0 0 1-14.424-9.102 118.504 118.504 0 0 1-12.702-10.804c-.494-.484-.986-.973-1.473-1.464-.212-.214-.539.115-.327.326l-.003.003zM153.226 137.433c9.354-3.35 18.93-6.046 28.518-8.629 9.672-2.605 19.388-5.055 29.02-7.805 7.608-2.172 15.105-4.674 22.418-7.704 7.288-3.023 14.505-6.481 21.014-10.973 2.733-1.885 5.364-3.972 7.613-6.424 1.803-1.966 3.399-4.215 4.233-6.77.187-.573.329-1.156.428-1.75.049-.293-.399-.418-.448-.123-.43 2.592-1.754 4.934-3.382 6.964-2.007 2.505-4.469 4.63-7.042 6.532-6.241 4.613-13.295 8.125-20.404 11.19-7.094 3.059-14.392 5.64-21.803 7.812-9.48 2.782-19.06 5.213-28.607 7.756-9.551 2.544-19.097 5.161-28.459 8.348-1.077.367-2.152.743-3.225 1.126-.28.101-.159.548.123.447l.003.003z" fill="#1E272E"/>
    <path d="M160.027 133.808c-.812-1.386-4.435-.578-6.535.093a279.17 279.17 0 0 1-9.817 2.937 332.507 332.507 0 0 1-36.904 8.078c-2.548.408-7.03.759-9.605.959-3.166.243-5.571.125-5.667 2.074-.076 1.58 3.657 3.86 6.208 5.394 4.462 2.681 16.421 9.69 19.019 11.133 1.274.707 2.993 1.649 4.516 1.703 1.609.056 2.907-1.148 4.127-2.033l4.669-3.396c5.889-4.283 11.821-8.513 17.56-12.995 2.843-2.222 5.635-4.51 8.334-6.906 1.266-1.126 5.332-4.925 4.093-7.039l.002-.002zM81.306 110.933A35.404 35.404 0 0 0 76.617 113a36.852 36.852 0 0 0-4.326 2.693 37.105 37.105 0 0 0-3.924 3.279 36.439 36.439 0 0 0-3.426 3.784c-.97 1.237-2.849 4.481-2.925 4.785a42.498 42.498 0 0 0 3.852-1.897 43.797 43.797 0 0 0 8.44-6.127 43.415 43.415 0 0 0 7.089-8.458c.041-.064-.01-.155-.091-.126z" fill="#fff"/>
    <path d="M133.132 141.269c-3.148.398-5.448 3.237-6.07 6.213-.337 1.607-.249 3.325.393 4.846.608 1.438 1.702 2.586 3.146 3.195 1.515.639 3.323.646 4.738-.253.251-.16.019-.563-.234-.401-1.163.74-2.605.809-3.896.389a5.39 5.39 0 0 1-3.124-2.677c-1.387-2.678-.792-6.18 1.075-8.476.996-1.224 2.383-2.17 3.972-2.371.293-.037.295-.502 0-.465zM122.629 141.699a28.032 28.032 0 0 0-4.393 8.184 28.602 28.602 0 0 0-1.52 9.174c0 1.745.167 3.49.497 5.205.057.292.504.17.448-.123a27.333 27.333 0 0 1-.187-9.108 28.27 28.27 0 0 1 2.74-8.66 26.865 26.865 0 0 1 2.745-4.345c.182-.233-.145-.563-.327-.327h-.003zM146.255 137.573c-1.909.098-3.658 1.521-4.027 3.416-.376 1.937.605 3.979 2.433 4.778 1.009.442 2.167.518 3.21.152.28-.098.16-.546-.123-.447-1.663.582-3.643-.054-4.565-1.578-.908-1.499-.721-3.468.531-4.711a3.949 3.949 0 0 1 2.541-1.148c.298-.015.3-.479 0-.464v.002zM110.65 147.057c-1.006.474-1.776 1.383-2.118 2.438-.351 1.086-.182 2.288.406 3.258a4.032 4.032 0 0 0 1.341 1.355c.256.157.487-.244.234-.401a3.656 3.656 0 0 1-1.648-2.431c-.185-.983.105-2.017.725-2.794.349-.437.79-.786 1.296-1.025.271-.127.035-.528-.233-.4h-.003z" fill="#1E272E"/>
    <path d="M22.442 113.447c-.227-.651-.537-1.275-.812-1.904-.583-1.325-1.166-2.65-1.746-3.972l-1.35-3.069a83.143 83.143 0 0 0-5.019 6.348l-1.01 1.467c1.064.59 5.192 3.529 7.693 3.58a1.2 1.2 0 0 0 .106-.005c.268.064.544.089.822.054.49-.056.984-.282 1.266-.7.367-.536.251-1.221.052-1.796l-.002-.003z" fill="#fff"/>
    <path d="M281.614 76.84c5.053-4.817 10.176-9.548 15.531-14.025 5.232-4.372 10.533-8.668 15.937-12.826 5.401-4.156 10.869-8.275 16.65-11.897 2.344-1.47 4.742-2.86 7.121-4.274 1.104-.656.848-2.16-.005-2.949-1.112-1.027-3.156-1.492-4.573-1.959-3.815-1.26-8.432-2.315-12.36-3.148-4.041-.855-38.406-8.385-75.627-13.357-2.275.554-8.42 2.257-10.215 2.77a363.912 363.912 0 0 0-45.803 16.512c-11.75 5.151-24.846 11.51-35.969 17.904 1.801 2.659 5.111 3.905 7.916 5.18 6.766 3.075 20.703 9.098 40.295 16.136 26.25 9.433 36.935 12.608 45.613 14.711 6.947 1.684 13.684 2.227 17.282 2.099 3.597-.128 7.579-2.163 11.337-4.706 2.317-2.033 4.637-4.045 6.87-6.173v.002zM544.474 147.821c-4.164 27.438-24.221 49.682-44.797 49.682-20.575 0-33.878-22.244-29.713-49.682 4.164-27.439 24.221-49.682 44.797-49.682 20.575 0 33.878 22.243 29.713 49.682zM274.461 196.549c-4.095 30.815-27.598 55.794-52.49 55.794-24.893 0-41.752-24.981-37.656-55.794 4.095-30.815 27.598-55.793 52.49-55.793 24.893 0 41.752 24.981 37.656 55.793z" fill="#1E272E"/>
    <path d="M172.67 230.333c9.618-2.143 9.532-7.79 11.032-23.383.728-7.557 14.618-16.839 17.024-14.967 2.405 1.873 13.147 3.957 10.1 19.815-3.046 15.859-1.604 23.067-8.017 24.35-6.412 1.28-30.141-5.815-30.141-5.815h.002z" fill="#1E272E"/>
    <path d="M180.468 244.425c13.656 6.264 34.33 8.985 45.195 7.734 10.392-1.197 22.708-32.61 22.066-32.61-.642 0-69.478 14.311-69.478 14.311l2.214 10.565h.003zM166.122 222.929c.436-7.442 1.456-14.851 3.124-22.121 1.614-7.033 3.825-13.944 6.725-20.555 2.74-6.244 6.095-12.233 10.142-17.731 3.886-5.276 8.424-10.088 13.59-14.133 5.126-4.016 10.872-7.24 17.001-9.45 6.492-2.337 13.514-3.696 20.428-3.551 7.033.148 13.984 1.976 20.131 5.407 6.206 3.463 11.452 8.474 15.398 14.367 4.277 6.392 6.823 13.622 8.378 21.115 1.672 8.071 2.371 16.397 2.132 24.634a87.78 87.78 0 0 1-.327 5.471c-.027.297.438.295.465 0 .745-8.093.372-16.321-.794-24.357-1.132-7.795-3.06-15.586-6.762-22.585-3.372-6.379-8.095-12.044-13.947-16.293a43.199 43.199 0 0 0-19.26-7.783c-7.003-.993-14.17-.234-20.981 1.573a61.03 61.03 0 0 0-18.025 8.114c-5.461 3.618-10.334 8.081-14.552 13.082-4.408 5.227-8.115 11.022-11.18 17.129-3.219 6.417-5.745 13.175-7.659 20.09-1.99 7.201-3.321 14.581-4.051 22.013-.182 1.85-.325 3.703-.433 5.559-.017.297.447.297.465 0l-.008.005zM457.769 171.018c.334-6.122.998-12.229 2.076-18.267 1.018-5.697 2.398-11.337 4.248-16.822 1.734-5.146 3.886-10.162 6.569-14.888 2.507-4.416 5.483-8.579 8.996-12.253 3.37-3.527 7.226-6.584 11.492-8.963 4.417-2.465 9.226-4.168 14.192-5.114 5.5-1.047 11.123-1.16 16.581.197 5.326 1.324 10.275 3.944 14.429 7.52 4.462 3.841 7.97 8.692 10.501 13.99 3.234 6.773 4.651 14.139 4.892 21.605a98.9 98.9 0 0 1 .008 5.581c-.008.3.457.297.465 0 .189-7.658-.411-15.387-2.984-22.656-2.064-5.83-5.229-11.322-9.448-15.861-3.79-4.077-8.449-7.331-13.651-9.339-5.245-2.023-10.946-2.71-16.532-2.13-5.193.538-10.304 1.855-15.071 3.99-4.509 2.02-8.668 4.775-12.341 8.076-3.77 3.389-7.017 7.333-9.775 11.58-2.927 4.507-5.305 9.356-7.251 14.359-2.096 5.39-3.695 10.966-4.905 16.616-1.284 5.989-2.132 12.071-2.639 18.173-.128 1.534-.231 3.07-.315 4.608-.017.298.448.298.465 0l-.002-.002z" fill="#1E272E"/>
    <path d="M121.025 223.174c12.464.91 24.984.897 37.465.364 13.339-.568 26.651-1.735 39.914-3.261 13.305-1.531 26.565-3.426 39.786-5.549 12.648-2.03 25.262-4.272 37.856-6.619 11.123-2.074 22.228-4.236 33.339-6.365 1.254-.24 2.509-.479 3.763-.72.293-.056.17-.503-.123-.447-10.869 2.069-21.731 4.195-32.606 6.242-12.397 2.335-24.814 4.581-37.26 6.633-13.29 2.192-26.617 4.171-39.988 5.795-13.256 1.612-26.558 2.885-39.895 3.595-12.566.669-25.177.853-37.747.155a243.223 243.223 0 0 1-4.506-.29c-.298-.022-.298.443 0 .465l.002.002zM499.412 37.88c2.479 1.487 4.947 2.996 7.441 4.458 3.202 1.876 6.442 3.694 9.748 5.377 3.539 1.802 7.162 3.475 10.958 4.665a44.455 44.455 0 0 0 11.034 1.998c3.653.187 7.311-.091 10.926-.617.468-.069.933-.14 1.4-.216.295-.047.17-.494-.123-.448-3.618.588-7.281.95-10.951.863a43.792 43.792 0 0 1-10.931-1.659c-3.808-1.081-7.433-2.671-10.973-4.428-3.355-1.666-6.636-3.483-9.876-5.363-2.59-1.501-5.148-3.054-7.711-4.6-.238-.143-.475-.288-.713-.43-.256-.155-.49.245-.234.4h.005zM388.601 96.712c-1.183.164-2.367.349-3.547.53a984.953 984.953 0 0 0-12.37 1.979c-1.71.287-3.432.553-5.126.921-1.183.256-2.514.747-2.925 2.008-.438 1.339.526 2.73 1.429 3.63a6.888 6.888 0 0 0 3.444 1.836c1.274.267 2.587.236 3.876.11 1.449-.142 2.891-.371 4.329-.575 1.676-.236 3.348-.484 5.016-.774a68.188 68.188 0 0 0 5.005-1.049c1.238-.312 2.47-.652 3.54-1.369a6.296 6.296 0 0 0 2.169-2.482 7.484 7.484 0 0 0 .606-1.782c.098-.494.14-1.013.022-1.506-.433-1.802-2.721-1.767-4.177-1.632-.43.039-.861.096-1.289.154-.125.018-.192.177-.162.286.034.135.162.179.285.162.844-.116 1.7-.221 2.553-.19.684.025 1.484.136 1.98.654.633.659.428 1.716.205 2.5-.31 1.078-.859 2.076-1.68 2.848-.79.742-1.781 1.229-2.809 1.546-1.525.467-3.107.793-4.671 1.101-3.132.612-6.297 1.039-9.456 1.472-2.418.329-5.104.604-7.288-.718a6.425 6.425 0 0 1-1.525-1.302c-.433-.499-.817-1.087-.974-1.735-.15-.622-.012-1.246.423-1.723.399-.435.95-.678 1.503-.846.836-.25 1.714-.378 2.573-.533.834-.15 1.668-.295 2.504-.437 2.019-.344 4.041-.674 6.063-.998 1.997-.32 3.995-.634 5.995-.944a458.14 458.14 0 0 1 4.1-.621c.17-.025.337-.05.507-.072.295-.042.169-.486-.123-.447l-.005-.002zM475.302 77.938c-1.031.2-2.054.42-3.08.637a709.534 709.534 0 0 0-10.579 2.317c-.738.17-1.476.342-2.212.519-.76.184-1.544.339-2.267.636-.478.197-.93.47-1.255.88a2.307 2.307 0 0 0-.512 1.578c.072 1.194.888 2.307 1.767 3.067.858.742 1.898 1.167 3.02 1.307 1.085.133 2.182.005 3.252-.177 1.264-.214 2.521-.477 3.776-.73a92.83 92.83 0 0 0 4.248-.936c1.421-.354 2.836-.752 4.218-1.243.893-.318 1.737-.777 2.423-1.436.718-.69 1.222-1.565 1.532-2.506.29-.875.551-1.971.229-2.876-.519-1.46-2.288-1.39-3.549-1.214-.34.047-.677.11-1.014.175-.293.056-.17.503.123.447.667-.128 1.338-.248 2.017-.256.556-.004 1.205.055 1.633.453.546.508.51 1.364.392 2.037-.175.993-.529 1.961-1.13 2.777-.531.72-1.256 1.268-2.058 1.651-.502.241-1.036.41-1.565.583-.664.216-1.333.415-2.007.6-2.666.734-5.384 1.248-8.097 1.779-1.993.39-4.241.862-6.147-.11-1.006-.517-1.875-1.404-2.347-2.434-.233-.506-.349-1.088-.182-1.632.153-.496.519-.887.962-1.145.696-.405 1.53-.555 2.305-.745.674-.164 1.35-.324 2.029-.481 1.695-.393 3.394-.77 5.094-1.143a744.74 744.74 0 0 1 5.134-1.108c1.178-.25 2.354-.502 3.534-.74.145-.03.29-.059.436-.086.292-.056.169-.504-.123-.447v.002zM468.968 25.361a181.123 181.123 0 0 1 3.522 6.84 207.776 207.776 0 0 1 3.235 6.928 244.93 244.93 0 0 1 2.986 6.996 300.41 300.41 0 0 1 2.804 7.115 401.539 401.539 0 0 1 2.984 8.112c.1.28.548.16.447-.123a421.286 421.286 0 0 0-2.664-7.262 305.53 305.53 0 0 0-2.787-7.127 260.517 260.517 0 0 0-2.978-7.053 216.246 216.246 0 0 0-3.203-6.937 192.206 192.206 0 0 0-3.953-7.72c-.142-.262-.543-.029-.401.234l.008-.003z" fill="#1E272E"/>
    <path d="M496.219 197.058a25.802 25.802 0 0 1-8.454-2.6c-2.644-1.349-5.042-3.146-7.128-5.254-2.204-2.229-4.052-4.79-5.562-7.53-1.638-2.976-2.88-6.159-3.776-9.432-.978-3.579-1.547-7.26-1.763-10.961-.03-.487-.052-.973-.069-1.46-.01-.297-.475-.3-.465 0 .133 3.805.618 7.604 1.528 11.302.829 3.367 2.009 6.658 3.591 9.747 1.461 2.851 3.274 5.532 5.448 7.889 2.049 2.221 4.428 4.148 7.069 5.623a26.275 26.275 0 0 0 9.579 3.138c.295.037.292-.428 0-.464l.002.002z" fill="#524F73"/>
    <path d="M175.634 241.712c11.652 7.846 33.189 11.403 46.853 10.69 6.998-.364.34-16.21.113-16.296-.226-.086-18.711-4.672-21.05-4.126-2.339.545-20.674 6.323-20.674 6.323s-8.457 1.243-5.242 3.409z" fill="#1E272E"/>
    <path d="M218.362 251.933a34.045 34.045 0 0 1-12.822-3.945c-3.919-2.133-7.382-5.033-10.275-8.422-3.07-3.598-5.49-7.736-7.268-12.111-1.943-4.775-3.151-9.84-3.702-14.961-.618-5.739-.428-11.558.44-17.26.133-.874.283-1.744.448-2.614.054-.293-.391-.418-.448-.123-1.126 5.954-1.542 12.054-1.08 18.1.404 5.261 1.464 10.483 3.294 15.438 1.672 4.527 3.982 8.822 6.971 12.619 2.804 3.564 6.213 6.66 10.104 9a34.315 34.315 0 0 0 14.336 4.743c.297.029.295-.435 0-.464h.002z" fill="#524F73"/>
    <path d="M258.439 196.549c-2.64 19.86-17.787 35.962-33.831 35.962-16.045 0-26.91-16.1-24.271-35.962 2.64-19.859 17.787-35.958 33.832-35.958 16.044 0 26.909 16.099 24.27 35.958z" fill="#DADEED"/>
    <path d="M232.587 166.584c2.467-3.47 10.048-2.059 12.419 1.414 2.371 3.472 2.275 8.205.625 12.073-1.651 3.869-4.647 7.002-7.827 9.754-.657.568-1.345 1.136-2.172 1.409-.824.272-1.825.186-2.435-.43-1.132-1.141-.303-3.026.334-4.5a14.311 14.311 0 0 0 .451-10.037c-.529-1.614-1.348-3.126-1.806-4.76-.46-1.634-.514-3.5.411-4.923zM224.822 226.824c-3.174 2.905-10.235.651-12.105-3.116-1.869-3.768-1.117-8.442 1.053-12.045 2.169-3.602 5.571-6.294 9.103-8.579.728-.472 1.491-.939 2.345-1.096.856-.155 1.832.066 2.354.762.961 1.288-.121 3.037-.955 4.409a14.325 14.325 0 0 0-1.837 9.879c.302 1.671.902 3.281 1.129 4.964.226 1.684.024 3.537-1.09 4.819l.003.003zM252.339 198.39c2.757 2.345 2.019 9.958-.524 12.445-2.544 2.487-6.157 2.549-9.18 1.035-3.023-1.514-5.547-4.399-7.788-7.481-.462-.637-.927-1.305-1.17-2.118-.244-.814-.224-1.817.218-2.446.82-1.167 2.293-.403 3.447.18 2.457 1.246 5.241 1.285 7.674.108 1.208-.585 2.324-1.453 3.549-1.966 1.228-.514 2.645-.632 3.774.243zM207.461 190.845c-2.357-3.067-.955-10.194 1.835-12.187 2.789-1.993 6.388-1.4 9.231.642s5.047 5.345 6.949 8.793c.393.713.782 1.455.939 2.303.158.848.03 1.833-.477 2.374-.937 1.002-2.322-.018-3.404-.802-2.312-1.676-5.072-2.216-7.615-1.496-1.262.359-2.463 1.012-3.737 1.297-1.274.286-2.696.145-3.724-.921l.003-.003z" fill="#6A687D"/>
    <path d="M262.458 196.549a54.164 54.164 0 0 1-3.301 12.669 52.788 52.788 0 0 1-5.97 11.059c-2.29 3.241-4.969 6.22-8.001 8.786-2.868 2.428-6.069 4.482-9.524 5.971-3.306 1.423-6.861 2.308-10.462 2.478-3.438.159-6.894-.332-10.129-1.522-3.124-1.15-5.992-2.946-8.442-5.197-2.536-2.33-4.617-5.122-6.233-8.154-1.763-3.311-2.974-6.901-3.697-10.578-.799-4.055-.998-8.218-.703-12.337a53.458 53.458 0 0 1 2.563-12.904 53.268 53.268 0 0 1 5.379-11.504c2.138-3.431 4.679-6.618 7.596-9.42 2.738-2.627 5.812-4.915 9.177-6.679 3.203-1.679 6.671-2.871 10.257-3.382 3.469-.494 7.038-.337 10.43.551 3.215.84 6.23 2.334 8.872 4.345 2.72 2.069 5.018 4.671 6.845 7.554 1.958 3.087 3.385 6.488 4.332 10.015 1.045 3.897 1.505 7.937 1.466 11.97a52.191 52.191 0 0 1-.45 6.282c-.039.295.425.292.465 0 .563-4.276.62-8.624.051-12.902-.506-3.822-1.505-7.577-3.067-11.106-1.444-3.261-3.38-6.318-5.805-8.938-2.285-2.47-5.01-4.542-8.051-5.999a25.71 25.71 0 0 0-9.9-2.477c-3.611-.172-7.239.391-10.661 1.538-3.574 1.2-6.921 3.016-9.952 5.247-3.202 2.359-6.06 5.166-8.542 8.272a52.306 52.306 0 0 0-6.585 10.678 54.383 54.383 0 0 0-4.044 12.517c-.831 4.3-1.153 8.712-.863 13.084.263 3.949 1.021 7.876 2.366 11.604 1.223 3.391 2.925 6.616 5.138 9.467 2.091 2.693 4.644 5.035 7.567 6.802a25.386 25.386 0 0 0 9.529 3.399c3.537.504 7.155.282 10.623-.561 3.596-.872 7.023-2.403 10.149-4.374 3.331-2.101 6.336-4.699 8.973-7.616a50.954 50.954 0 0 0 7.116-10.15 54.13 54.13 0 0 0 4.725-12.14 54.536 54.536 0 0 0 1.228-6.343c.039-.295-.426-.292-.465 0v-.005z" fill="#524F73"/>
    <path d="M241.194 190.602a24.194 24.194 0 0 0 4.848-5.092 24.793 24.793 0 0 0 3.21-6.259c.43-1.254.755-2.539.971-3.846.049-.293-.398-.418-.447-.123a23.74 23.74 0 0 1-2.121 6.608 24.217 24.217 0 0 1-3.918 5.736 23.6 23.6 0 0 1-2.873 2.647c-.236.184.096.509.327.327l.003.002zM234.018 207.451c1.346 3.428 4.079 6.257 7.436 7.766.94.423 1.919.742 2.93.946.292.059.415-.388.123-.447-3.476-.698-6.617-2.814-8.622-5.729-.57-.828-1.05-1.72-1.419-2.659-.108-.275-.556-.155-.448.123zM208.74 215.622a19.672 19.672 0 0 1 2.937-6.606 20.274 20.274 0 0 1 5.086-5.146 19.193 19.193 0 0 1 3.565-1.973c.115-.049.196-.152.162-.285-.03-.108-.17-.212-.285-.162a20.237 20.237 0 0 0-6.182 4.084 20.792 20.792 0 0 0-4.336 6.011 19.738 19.738 0 0 0-1.392 3.954c-.069.29.378.416.447.123h-.002zM214.85 174.765c3.623.824 6.887 3.05 9.017 6.088.603.86 1.119 1.782 1.525 2.75.049.115.153.196.286.162.11-.029.211-.17.162-.285a15.418 15.418 0 0 0-3.141-4.765 15.89 15.89 0 0 0-4.666-3.343 15.07 15.07 0 0 0-3.063-1.054c-.29-.066-.415.381-.123.447h.003z" fill="#6A687D"/>
    <path d="M531.14 148.005c-2.819 17.729-15.841 32.027-29.084 31.936-13.243-.091-21.695-14.534-18.876-32.263 2.819-17.728 15.841-32.026 29.084-31.935 13.243.091 21.695 14.534 18.876 32.262z" fill="#DADEED"/>
    <path d="M502.413 174.864c-2.713 2.578-8.472.524-9.893-2.851-1.422-3.376-.65-7.547 1.257-10.754 1.906-3.207 4.801-5.591 7.79-7.613.617-.418 1.259-.831 1.97-.966.711-.135 1.51.071 1.918.695.753 1.155-.196 2.713-.929 3.935-1.562 2.605-2.226 5.802-1.835 8.815.194 1.494.639 2.937.772 4.441.135 1.504-.093 3.16-1.053 4.298h.003zM489.238 142.624c-1.847-2.755-.46-9.113 1.909-10.878 2.366-1.764 5.318-1.216 7.601.625 2.282 1.84 3.994 4.804 5.453 7.893.3.639.6 1.305.701 2.065.101.759-.035 1.636-.47 2.118-.807.892-1.916-.027-2.784-.735-1.855-1.509-4.115-2.01-6.238-1.378-1.053.312-2.066.889-3.127 1.137-1.06.249-2.23.116-3.045-.845v-.002z" fill="#6A687D"/>
    <path d="M534.424 147.966c-1.208 7.537-4.037 14.834-8.378 21.127-3.791 5.496-8.835 10.369-14.975 13.143-5.315 2.401-11.467 2.991-16.943.76-5.386-2.195-9.347-6.82-11.713-12.025-2.883-6.336-3.584-13.526-2.895-20.395.77-7.678 3.289-15.207 7.32-21.789 3.54-5.777 8.344-10.99 14.318-14.29 5.193-2.871 11.372-4.139 17.162-2.455 5.5 1.597 9.819 5.684 12.549 10.621 3.297 5.962 4.418 12.956 4.125 19.702a49.742 49.742 0 0 1-.568 5.606c-.046.292.401.418.448.123.598-3.782.797-7.628.477-11.448-.285-3.428-.979-6.834-2.182-10.061-1.07-2.87-2.538-5.596-4.467-7.982-1.778-2.202-3.955-4.094-6.449-5.443a19.56 19.56 0 0 0-8.065-2.303c-3.021-.194-6.064.292-8.915 1.285-3.02 1.055-5.832 2.654-8.37 4.591-2.76 2.106-5.21 4.596-7.347 7.328a49.265 49.265 0 0 0-5.808 9.504 52.908 52.908 0 0 0-3.756 11.113c-.836 3.841-1.257 7.783-1.168 11.712.079 3.517.568 7.039 1.557 10.415.885 3.021 2.179 5.94 3.948 8.55 1.608 2.372 3.611 4.483 5.982 6.105a19.461 19.461 0 0 0 7.758 3.136c2.927.489 5.938.314 8.813-.403 3.045-.76 5.926-2.111 8.543-3.829 2.843-1.865 5.396-4.158 7.645-6.707 2.435-2.76 4.526-5.824 6.26-9.068a52.462 52.462 0 0 0 4.297-10.777 52.984 52.984 0 0 0 1.24-5.718c.046-.293-.401-.418-.448-.123l.005-.005z" fill="#524F73"/>
    <path d="M489.541 164.773a18.88 18.88 0 0 1 2.642-5.888 18.239 18.239 0 0 1 4.371-4.569 16.459 16.459 0 0 1 3.025-1.745c.273-.12.037-.521-.233-.4-1.953.862-3.722 2.118-5.225 3.627a19.308 19.308 0 0 0-3.749 5.326 19.114 19.114 0 0 0-1.276 3.526c-.074.29.374.413.447.123h-.002zM495.855 128.323c3.018.771 5.601 2.828 7.215 5.468.477.779.868 1.607 1.17 2.47.099.28.546.159.448-.123-1.077-3.085-3.291-5.776-6.201-7.297a11.801 11.801 0 0 0-2.509-.966c-.29-.073-.413.374-.123.448z" fill="#6A687D"/>
    <path d="M279.253 103.477c-.231 7.078 1.449 14.015 3.277 20.798 1.675 6.213 3.249 12.443 4.597 18.736a337.127 337.127 0 0 1 3.586 19.531 313.155 313.155 0 0 1 2.418 19.925c.563 6.415.918 12.848.986 19.287.008.767.013 1.536.013 2.303 0 .297.465.3.465 0-.003-6.397-.291-12.792-.797-19.169a307.865 307.865 0 0 0-2.219-19.668 336.024 336.024 0 0 0-3.434-19.618 318.84 318.84 0 0 0-4.41-18.66c-1.843-6.842-3.82-13.745-4.024-20.875-.025-.865-.022-1.73.007-2.595.01-.3-.455-.297-.465 0v.005z" fill="#1E272E"/>
    <path d="M268.903 116.451c-.748-.779-11.733 1.27-21.496 4.622-3.862 1.325-5.348 3.994-1.168 5.5 2.167.782 4.486 1.455 7.029 1.485 4.312.049 7.461-2.06 10.203-4.599.758-.7 1.481-1.42 2.212-2.138.866-.847 3.876-4.19 3.222-4.87h-.002zM66.264 174.699c-.064-1.135-.359-2.263-1.121-3.217-.677-.847-1.602-1.489-2.553-2.027-1.147-.649-2.355-1.192-3.54-1.765-1.37-.663-31.241-15.77-32.557-16.35-.986-.435-2.064-.818-3.136-.833-1.021-.012-1.924.408-2.413 1.231-.571.956-.576 2.185-.655 3.281-.078 1.101-.194 9.59-.194 10.551 0 .96.342 1.708 1.368 2.366 1.025.659 40.898 21.747 42.533 22.563 1.216.604 1.67-.187 1.67-1.777 0-.025.429-8.754.49-10.15.057-1.282.177-2.578.106-3.87l.002-.003zM127.726 207.441l-.812-6.534c-.098-.787-.194-1.576-.295-2.362-1.71-.219-3.476.332-4.824 1.565-1.274 1.165-2.098 2.75-2.649 4.385-1.458 4.32-1.463 12.363 2.981 14.443 2.969.159 5.304-2.483 5.801-5.252.368-2.067.054-4.181-.202-6.245z" fill="#fff"/>
    <path d="M123.503 215.192a6.763 6.763 0 0 1-1.946-4.202 6.65 6.65 0 0 1 1.178-4.308 6.62 6.62 0 0 1 1.828-1.78c.248-.162.017-.565-.234-.4a7.264 7.264 0 0 0-2.91 3.792 7.038 7.038 0 0 0 .192 4.868 7.185 7.185 0 0 0 1.564 2.36c.212.211.542-.116.328-.327v-.003zM398.789 157.914l-14.183 2.868-17.84 3.603c-6.27 1.265-12.54 2.531-18.812 3.794a32787.068 32787.068 0 0 1-30.277 6.088l-1.183.235c-.293.059-.17.507.122.448 4.118-.824 8.238-1.649 12.356-2.477a42176.18 42176.18 0 0 0 35.659-7.184c6.016-1.214 12.035-2.428 18.052-3.644l14.773-2.986 1.456-.295c.293-.059.17-.507-.123-.448v-.002zM455.4 135.44c-.984 3.155-2.359 6.276-4.398 8.901-.861 1.108-1.852 2.138-3.013 2.934a8.876 8.876 0 0 1-1.673.915c-.63.255-1.279.393-1.941.525-3.507.703-7.015 1.411-10.523 2.116l-11.314 2.283c-3.98.804-7.96 1.608-11.937 2.414l-1.498.302c-.293.059-.17.506.123.447 4.041-.818 8.082-1.634 12.124-2.45 3.852-.779 7.704-1.555 11.555-2.332 3.577-.72 7.153-1.44 10.73-2.158.735-.147 1.488-.26 2.206-.484a8.68 8.68 0 0 0 1.744-.772c1.203-.695 2.251-1.644 3.156-2.691 2.14-2.469 3.613-5.49 4.686-8.557.147-.42.288-.843.418-1.268.089-.285-.359-.408-.448-.123l.003-.002z" fill="#1E272E"/>
    <path d="m386.205 57.396-.01-.113c-.197-2.298-1.333-3.684-3.448-4.316-1.12-.334-2.293-.494-3.442-.685a104.666 104.666 0 0 0-3.618-.54c-4.86-.637-9.777-.905-14.67-.566-2.263.157-4.543.405-6.762.919-1.918.445-3.822 1.126-5.448 2.313-1.626 1.186-2.799 2.853-3.623 4.73-.849 1.934-1.36 4.006-1.929 6.043-.649 2.33-1.515 4.616-1.901 7.017-.189 1.177-.248 2.384-.076 3.568.15 1.035.479 2.03.949 2.95 2.057 4.04 6.231 6.064 10.188 7.409 4.477 1.518 9.17 2.24 13.861 2.4 2.197.077 4.428.092 6.614-.16 1.924-.22 3.892-.724 5.471-1.955 1.638-1.276 2.59-3.215 3.335-5.161.871-2.28 1.668-4.608 2.403-6.943 1.737-5.505 2.578-11.113 2.101-16.912l.005.002z" fill="#fff"/>
    <path d="M374.58 81.249c.13-.666.133-1.347.071-2.02-.071-.77-.226-1.539-.521-2.256-.29-.708-.716-1.362-1.294-1.868-.558-.49-1.247-.85-1.987-.961a2.947 2.947 0 0 0-1.968.376 2.916 2.916 0 0 0-1.068 1.11 3.945 3.945 0 0 0-.691-1.857c-.642-.929-1.638-1.568-2.765-1.7-1.129-.136-2.285.2-3.219.832-1.004.681-1.705 1.694-2.049 2.851-.126.423-.204.86-.236 1.3-.433.18-.797.504-1.053.912-.859 1.376-.315 3.055.457 4.333a9.393 9.393 0 0 0 3.326 3.244c1.232.712 2.681 1.211 4.122 1.115.633-.041 1.275-.206 1.808-.56.259-.17.487-.383.672-.634.231-.312.379-.673.585-1 .19-.3.443-.54.782-.661.281-.099.583-.113.879-.101.639.027 1.279.18 1.918.103a2.232 2.232 0 0 0 1.498-.843c.394-.491.615-1.103.736-1.715h-.003z" fill="#DADEED"/>
    <path d="M318.963 70.738c-.103-.17.022-.352-.157-.268-2.249 1.04-9.126 3.276-11.529 3.88-9.426 2.374-17.304 3.22-17.304 3.22a161.667 161.667 0 0 0-8.678 10.705c-1.196 1.612-2.423 3.625-1.71 5.502.967 2.541 4.472 2.657 7.175 2.318 14.08-1.77 28.147-3.657 42.194-5.66-1.812-4.569-5.022-11.52-9.993-19.695l.002-.002z" fill="#C9683C"/>
    <path d="M314.877 83.635c-.59-1.661-1.798-2.966-3.379-3.733-1.624-.787-3.451-1.04-5.232-1.158-4.064-.27-8.233-.157-12.218.735-8.441 1.892-16.652 9.167-15.383 18.572.224 1.661 1.127 3.118 2.588 3.966 1.579.919 3.48 1.087 5.266 1.185 2.167.118 4.342.155 6.509.042 4.149-.217 8.338-.996 12.084-2.851 3.139-1.556 5.973-3.851 7.901-6.798 1.862-2.846 3.05-6.623 1.867-9.96h-.003z" fill="#1B9472"/>
    <path d="M357.141 58.03c-.448-1.863-.979-5.478-3.09-6.142-4.154-1.305-9.699.826-13.568 3.36-6.823 4.468-16.116 11.486-18.689 12.922-1.761.983-3.52 1.97-5.276 2.96.064.153.125.306.189.458.431 1.04.866 2.077 1.302 3.114.87 2.062 1.756 4.119 2.651 6.17a581.05 581.05 0 0 0 2.733 6.135c.6 1.32 1.205 2.642 1.818 3.956a2605.756 2605.756 0 0 0 18.305-2.65 50.322 50.322 0 0 0 2.548-2.189c1.636-1.501 3.174-3.113 4.551-4.856a35.89 35.89 0 0 0 3.436-5.202 31.331 31.331 0 0 0 2.413-5.7c.6-1.948.996-3.963 1.134-5.998.143-2.106.035-4.284-.46-6.34l.003.002z" fill="#fff"/>
    <path d="M326.778 80.598c.538-1.529 2.368-5.756 5.672-5.86 3.301-.102 2.605 4.923 2.605 4.923s3.95-2.654 6.127.915c2.179 3.568-2.303 8.422-2.303 8.422l-8.033 1.164-4.068-9.567v.003zM349.697 53.488c-.191-.66-.585-1.24-1.079-1.715-2.873.57-5.808 1.949-8.137 3.475-3.134 2.054-6.789 4.642-10.075 6.984.177 1.423.991 2.728 2.231 3.475.649.391 1.402.6 2.159.563a3.93 3.93 0 0 0 2.207-.838 3.741 3.741 0 0 0 1.37-2.266c.214.298.47.568.752.799a4.08 4.08 0 0 0 1.816.855c.703.128 1.441.059 2.123-.147 1.406-.428 2.622-1.44 3.389-2.682.792-1.28 1.215-3.008.519-4.42-.012-.028-.027-.05-.039-.077a2.92 2.92 0 0 0 1.466-.314c.418-.222.76-.55 1.003-.956.487-.811.554-1.839.293-2.733l.002-.003z" fill="#DADEED"/>
    <path d="M353.83 78.38c.713-3.115 1.426-6.23 2.142-9.345.204-.887.409-1.777.61-2.664.067-.29-.381-.415-.447-.123-.714 3.116-1.427 6.23-2.143 9.346-.204.887-.408 1.777-.61 2.664-.066.29.381.415.448.123zM366.013 48.3c.58 2.615 1.163 5.23 1.744 7.847l.871 3.922c.044.2.211.598-.018.74-.16.1-.403.05-.565-.024-.244-.108-.47-.276-.696-.416a49.056 49.056 0 0 1-.746-.472c-1.089-.7-2.155-1.437-3.234-2.155-.249-.164-.482.236-.234.4 1.013.672 2.015 1.362 3.033 2.026.519.337 1.038.688 1.581.983.392.211.972.277 1.284-.108.19-.236.17-.521.111-.799-.074-.354-.157-.705-.234-1.057l-.469-2.113-.93-4.188-1.048-4.716c-.064-.292-.512-.167-.448.123l-.002.007z" fill="#1E272E"/>
    <path d="m356.477 66.683 7.197-2.674.885-.33c.261-.095.568-.166.79-.34.305-.242.381-.605.29-.964-.152-.612-.307-1.224-.46-1.834l-.433-1.727c-.074-.29-.521-.167-.447.123.28 1.115.56 2.233.838 3.35.04.154.116.34.062.498-.091.266-.423.322-.657.408-.275.1-.549.204-.824.305-1.193.442-2.388.887-3.581 1.33l-3.786 1.405c-.278.103-.157.55.123.447l.003.003zM360.427 46.804l-7.601 5.765-1.869 1.418c-.305.231-.618.457-.918.698-.226.182-.408.423-.369.73.074.585.731.727 1.213.774.593.06 1.186.103 1.778.145 1.361.093 2.723.157 4.084.234.297.017.297-.448 0-.465-1.112-.061-2.224-.115-3.333-.184a86.121 86.121 0 0 1-1.776-.126 44.859 44.859 0 0 1-.807-.073c-.219-.022-.47-.052-.627-.224-.204-.224.083-.42.253-.548l.888-.673 1.778-1.35 3.525-2.673 4.015-3.045c.236-.18.004-.58-.234-.4v-.003z" fill="#1E272E"/>
    <path d="M356.56 66.245c-1.353-1.892-2.703-3.787-4.056-5.682-.325-.454-.649-.909-.974-1.366-.157-.221-.204-.435.02-.636.024-.023.054-.045.078-.067.451-.378.903-.754 1.353-1.133l1.225-1.024c.229-.192-.101-.519-.327-.327-.846.707-1.69 1.415-2.536 2.12-.219.182-.393.391-.418.691-.022.29.123.501.283.725.162.229.324.455.487.683.725 1.018 1.454 2.035 2.179 3.053l2.285 3.2c.172.24.576.01.401-.234v-.003zM321.75 68.384c1.107 2.914 2.211 5.832 3.362 8.731a224.992 224.992 0 0 0 3.22 7.683 312.43 312.43 0 0 0 2.315 5.097c.125.27.526.034.401-.234a259.014 259.014 0 0 1-3.778-8.49 262.451 262.451 0 0 1-3.078-7.688c-.669-1.74-1.33-3.48-1.992-5.222-.106-.275-.553-.157-.448.123h-.002zM341.679 81.165a6.72 6.72 0 0 1-.652-3.096c.039-1.622.45-3.232.846-4.795.354-1.4.743-2.792 1.131-4.183.082-.287-.366-.41-.447-.122-.62 2.219-1.274 4.443-1.705 6.709-.246 1.297-.415 2.641-.172 3.951.116.615.33 1.204.598 1.77.128.27.529.034.401-.234z" fill="#1E272E"/>
    <path d="M367.585 50.795c-.165-.327-.571-.433-.957-.413-.241.012-.482.064-.723.108-.254.047-.507.093-.758.143-2.034.378-4.29.32-6.41.491 0-.005-.472.575-.497.63-.831 1.823-1.367 3.713-1.695 5.605-.329 1.91-.442 3.819-.418 5.701a43.83 43.83 0 0 0 .163 3.17c.004.07.091.109.155.047a65.78 65.78 0 0 0 7.204-8.557 62.318 62.318 0 0 0 3.65-5.846c.19-.347.46-.73.283-1.082l.003.003z" fill="#C9683C"/>
    <path d="M357.14 53.739c.239 1.514.785 3.335 2.273 4.07 1.471.727 3.018-.106 4.17-1.042.819-.666 1.522-1.453 2.172-2.28.182-.234-.146-.564-.328-.328-.536.686-1.107 1.34-1.756 1.925-.575.52-1.22 1.01-1.943 1.307-.613.25-1.284.334-1.911.093-.596-.228-1.06-.715-1.385-1.25-.48-.79-.701-1.714-.844-2.618-.047-.295-.494-.17-.448.123z" fill="#FFB338"/>
    <path d="M391.808 106.584c2.359-.185 4.593-.75 6.57-1.841 3.729-2.06 5.648-5.93 6.034-10.05.494-5.285-1.085-10.495-3.104-15.32-2.753-6.576-6.602-12.54-10.54-18.46l-.318-.345c-1.579-1.708-3.032-3.54-4.769-5.099-1.769-1.588-3.84-2.811-6.017-3.829a7.82 7.82 0 0 0-2.287.86c-1.985 1.111-3.508 2.853-4.479 4.898-1.043 2.195-1.466 4.64-1.523 7.056-.052 2.27.982 1.661 1.488 3.873.497 2.172 1.715 4.826 2.684 6.834.826 1.71.553 5.69 1.687 7.216-.77-.253-8.25-3.308-14.98-5.07-5.123 1.995-8.141 3.354-12.571 7.023-2.285 1.826-5.584.391-6.905 2.991 8.614 5.456 17.486 10.651 27.013 14.362 6.014 2.345 14.638 5.483 22.015 4.905l.002-.004z" fill="#C9683C"/>
    <path d="M392.994 84.225a48.722 48.722 0 0 1-11.972-.706c-1.375-.255-2.403-.513-3.785-1.017-1.333-1.674-4.511-10.858-5.092-13.472-.566-2.546-2.307-4.586-1.914-7.177.362-2.376 1.425-4.669 3.419-6.242 1.705-1.344 3.879-2.076 6.083-2.29a15.001 15.001 0 0 1 6.711.892c2.361.9 4.434 2.42 6.144 4.168 1.793 1.833 3.232 3.95 4.427 6.159 1.238 2.285 6.142 11.01 8.509 16.38a1.04 1.04 0 0 1-.669 1.42c-3.633 1.022-8.28 1.651-11.866 1.885h.005z" fill="#fff"/>
    <path d="M386.721 79.246c.681-.104 1.161-.081 1.845-.14 1.707-.145 3.456-.111 5.146-.389 1.682-.275 3.325-.95 5.01-1.226.78-.128 1.542-.312 2.32-.455.319-.059.639-.11.954-.186-.536-1.364-.809-2.851-1.786-3.996-.548-.642-1.291-1.111-2.152-1.15-.92-.042-1.825.356-2.524.936-.829.688-1.414 1.605-1.98 2.509-1.136-.632-2.516-.772-3.763-.415-1.208.346-2.221 1.187-2.841 2.27-.236.413-.401.86-.45 1.345-.015.147-.094.94.224.894l-.003.003zM391.678 57.767c-.475-.671-1.097-1.226-1.739-1.733a33.313 33.313 0 0 0-1.995-1.45c-1.326-.897-2.735-1.698-4.263-2.197-1.503-.491-3.249-.771-4.759-.157-.664.27-1.255.723-1.594 1.362-.204.38-.32.813-.34 1.248a4.99 4.99 0 0 0-.327.135c-1.171.531-2.179 1.445-2.725 2.617-.539 1.158-.554 2.495-.153 3.7.394 1.186 1.191 2.258 2.268 2.904a4.507 4.507 0 0 0 2.743.61 8.421 8.421 0 0 0 .514 2.747c.256.7.617 1.376 1.129 1.927.472.508 1.05.894 1.727 1.066a3.35 3.35 0 0 0 1.886-.066c.797-.27 1.547-1.054 2.002-1.745.524-.794.778-1.73.839-2.674a9.432 9.432 0 0 0-.413-3.391c1.574.366 4.201.69 5.313-.848.049-.06.096-.123.14-.187.359-.538.514-1.2.495-1.84-.025-.74-.325-1.43-.748-2.03v.002z" fill="#DADEED"/>
    <path d="m376.966 82.487 8.375 4.198c.793.398 1.587.794 2.379 1.192.266.132.502-.266.234-.4-2.792-1.4-5.584-2.8-8.376-4.198l-2.378-1.192c-.266-.133-.502.265-.234.4z" fill="#1E272E"/>
    <path d="M373.279 66.74a143.335 143.335 0 0 0 3.581 15.61c.084.285.532.164.448-.123a143.441 143.441 0 0 1-3.579-15.61c-.049-.293-.497-.17-.448.122h-.002z" fill="#1E272E"/>
    <path d="M353.436 75.852c-.772-.02-1.547 0-2.319.071-7.04.63-12.68 6.584-14.09 13.35l7.178-1.057c2.506-.41 4.713-.265 7.224-.666.63-.695 1.348-1.317 2.074-1.902 1.554-1.25 3.234-2.342 4.754-3.637 1.41-1.204 3.225-3.01 4-4.709-2.878-.72-5.84-1.379-8.821-1.45z" fill="#C9683C"/>
    <path d="M351.532 46.59a4.776 4.776 0 0 0-1.552 1.504c-.774 1.217-.87 2.755-.319 4.08a4.25 4.25 0 0 0 1.237 1.678c.575.465 1.271.76 1.997.892 1.508.276 3.085-.135 4.346-.98 1.403-.942 2.426-2.345 3.191-3.827.071-.137.138-.277.204-.417.927 1.162 2.551 1.688 3.997 1.395a3.652 3.652 0 0 0 1.968-1.105 4.168 4.168 0 0 0 1.003-2.023 3.918 3.918 0 0 0-.248-2.337c.096-.157.172-.327.226-.504.212-.686.042-1.408-.344-2-.448-.688-1.164-1.14-1.914-1.443-.76-.307-1.574-.506-2.381-.646-.366-.064-.735-.11-1.107-.143-.558-2.064-2.206-3.777-4.496-3.787-1.451-.007-3.008.501-4.265 1.344-5.8 1.087-5.053 7.395-1.545 8.322l.002-.003z" fill="#1E272E"/>
    <path d="M356.108 45.73c-.192 1.234-1.068 2.285-2.303 2.573-1.215.283-2.482-.292-3.114-1.357a3.162 3.162 0 0 1 .226-3.511c.768-.979 2.079-1.396 3.262-.983 1.336.464 2.12 1.9 1.929 3.278-.018.125.029.248.162.285.108.032.268-.037.285-.162.199-1.43-.435-2.903-1.724-3.615-1.259-.696-2.839-.475-3.891.491-1.065.978-1.434 2.59-.901 3.935.529 1.33 1.84 2.246 3.291 2.17 1.639-.086 2.977-1.381 3.225-2.981.044-.293-.401-.418-.447-.123z" fill="#FFB338"/>
    <path d="M360.656 46.816c-.601.007-1.198.007-1.798 0 .091.585.189 1.167.3 1.747.27 1.428.585 2.846.952 4.252 0 .007.002.014.004.022.48 1.826 2.632 2.772 4.595 2 .613-.24 1.127-.494 1.466-.71a9.382 9.382 0 0 0 2.349-2.111c-.474-1.924-1.269-6.26-1.552-8.228-.558.226-5.451 3.018-6.316 3.03v-.002z" fill="#C9683C"/>
    <path d="M367.902 28.264c-1.776-1.201-4.105-1.6-6.235-1.187-3.68.715-5.946 2.087-7.677 5.188-1.326 2.374-1.269 6.473-1.269 6.473-1.139 3.544-1.838 6.835.361 9.002 1.119 1.104 2.863 1.37 4.408 1.067 4.373-.86 7.972-4.077 10.542-7.636.278-.386.546-.776.8-1.17 1.731-2.668 2.76-6.328 1.23-9.316a6.474 6.474 0 0 0-2.16-2.42z" fill="#C9683C"/>
    <path d="M385.757 46.806c-.639-1.295-1.726-2.384-3.065-3.101a7.447 7.447 0 0 0-1.313-.55 6.588 6.588 0 0 0-.583-1.783c-.64-1.295-1.727-2.383-3.065-3.101a7.387 7.387 0 0 0-1.867-.698 6.302 6.302 0 0 0-.312-.081c-.834-.182-1.894-.98-2.258-1.858-.431-1.03.012-2.865.258-4.534a4.463 4.463 0 0 0-.443-2.664 5.513 5.513 0 0 0-1.648-1.934c-2.964-2.205-7.711-1.794-11.012-.708-1.52.499-2.993 1.216-4.253 2.165-1.134.853-2.132 1.944-2.602 3.259-.204.57-.401 1.3-.094 1.87.15.275.932-1.767 4.698-1.693 7.234.14 5.382 5.043 5.284 7.058-.556 2.671-.44 4.851.531 6.498-.794.79-1.574 1.634-1.985 2.364-.733 1.305-.986 3.37-.15 4.733 1.252 2.04 3.567 2.347 4.342 2.391a6.311 6.311 0 0 0 2.125 2.667c1.085.779 2.361 1.133 3.623 1.024a5.765 5.765 0 0 0 3.512-1.624 5.919 5.919 0 0 0 1.007-1.312c.969.572 2.1.897 3.264.892a7.145 7.145 0 0 0 4.134-1.374c1.225-.895 2.059-2.148 2.389-3.546a6.522 6.522 0 0 0-.517-4.362v.002z" fill="#1E272E"/>
    <path d="M366.207 39.09a2.88 2.88 0 0 1-5.746.412 2.88 2.88 0 0 1 5.746-.412z" fill="#C9683C"/>
    <path d="M363.652 38.116c.415.19.72.558.784 1.018.064.454-.133.931-.502 1.206-.1.074-.152.202-.083.317.059.099.216.16.317.084.512-.381.807-.99.731-1.632a1.765 1.765 0 0 0-1.014-1.393c-.113-.052-.251-.032-.317.083-.059.101-.032.266.084.317zM360.55 35.236c-.812-.858-2.337-.914-3.279-.243-.293.209-.573.491-.642.857-.064.342.074.694.391.853.389.197.908.108 1.328.135 1.203.084 2.096.588 2.507-.014.295-.433.017-1.246-.305-1.588zM355.406 35.725c-.068-.366-.349-.649-.641-.858-.539-.383-.977-.447-1.582-.41-.499.192-.718.912-.738 1.251-.042.693.211 1.16.366 1.13.269-.051.561-.103.876-.123.421-.029.94.06 1.328-.135.318-.16.455-.51.391-.852v-.003zM358.275 37.396c.929-.012.838 1.344.671 1.88-.108.35-.342.762-.797.757-.666-.007-.733-.836-.721-1.28.015-.497.328-1.352.847-1.357zM353.631 37.396c.929-.012.838 1.344.671 1.88-.108.35-.342.762-.797.757-.666-.007-.733-.836-.721-1.28.015-.497.328-1.352.847-1.357zM358.973 48.925a9.69 9.69 0 0 0 1.889-1.074c.101-.074.15-.202.084-.317-.059-.101-.217-.158-.317-.084a9.756 9.756 0 0 1-1.889 1.074c-.116.05-.141.219-.084.317.069.118.202.133.317.084z" fill="#1E272E"/>
    <path d="M367.24 45.73c-.192 1.234-1.067 2.285-2.302 2.573-1.215.283-2.482-.292-3.114-1.357a3.159 3.159 0 0 1 .226-3.511c.768-.979 2.079-1.396 3.262-.983 1.335.464 2.12 1.9 1.928 3.278-.017.125.03.248.163.285.108.032.268-.037.285-.162.199-1.43-.435-2.903-1.724-3.615-1.26-.696-2.839-.475-3.892.491-1.065.978-1.434 2.59-.9 3.935.529 1.33 1.84 2.246 3.291 2.17 1.638-.086 2.976-1.381 3.225-2.981.044-.293-.401-.418-.448-.123z" fill="#FFB338"/>
    <path d="M354.878 39.438c-.195.391-.391.809-.335 1.259.049.39.308.766.713.85.123.025.251-.037.286-.162.032-.116-.04-.26-.163-.285a.418.418 0 0 1-.258-.155.574.574 0 0 1-.123-.356c-.015-.33.138-.63.281-.915.056-.113.029-.25-.084-.317-.103-.059-.261-.03-.317.084v-.003zM356.558 43.47c.9-.234 1.69-.844 2.137-1.66.145-.263-.256-.496-.401-.233a2.977 2.977 0 0 1-1.862 1.445c-.29.074-.167.52.123.447h.003zM376.612 79.654c3.51.08 7.025.08 10.533-.12 3.495-.202 6.985-.6 10.412-1.33a48.17 48.17 0 0 0 5.635-1.55c.28-.097.16-.546-.123-.448-3.281 1.128-6.686 1.86-10.122 2.32-3.466.462-6.963.654-10.459.703-1.958.027-3.918.007-5.876-.04-.3-.007-.298.457 0 .465zM160.332 59.723l.056-.07c-.019.023-.039.045-.056.07zM283.459 84.984a12.164 12.164 0 0 0-4.248 6.127c-.086.287.362.408.448.123a11.666 11.666 0 0 1 4.034-5.852c.234-.18.002-.582-.234-.4v.002z" fill="#1E272E"/>
    <path d="M279.373 90.949c-.767.125-1.539.216-2.307.339-.723.115-1.473.236-2.154.514-.239.095-.48.213-.662.4-.256.263-.391.624-.458.978-.147.782-.051 1.593.047 2.374.212 1.691.622 3.397 1.476 4.888.411.718.93 1.381 1.562 1.92a6.814 6.814 0 0 0 2.433 1.305c.942.29 1.93.412 2.912.474 1.055.069 2.118.078 3.175.064a49.74 49.74 0 0 0 6.529-.526c4.129-.605 8.215-1.716 12.045-3.379 3.34-1.453 6.589-3.438 8.897-6.309.283-.351.551-.715.804-1.088.167-.249-.234-.482-.401-.234-2 2.971-5.03 5.075-8.213 6.623-3.54 1.72-7.382 2.875-11.243 3.603a48.982 48.982 0 0 1-9.456.85c-1.003-.007-2.014-.029-3.013-.142-.952-.108-1.913-.31-2.787-.713a6.07 6.07 0 0 1-1.995-1.487c-1.094-1.234-1.682-2.843-2.021-4.436a17.35 17.35 0 0 1-.335-2.356c-.027-.391-.042-.79.012-1.18.045-.322.136-.686.377-.922.16-.155.383-.246.59-.32.312-.112.637-.193.959-.262.768-.167 1.55-.273 2.327-.381a45.76 45.76 0 0 0 1.021-.15c.295-.047.17-.494-.123-.447h.002z" fill="#1E272E"/>
    <path d="M275.563 100.01c3.114.28 6.246.398 9.369.282a60.706 60.706 0 0 0 2.662-.157c.295-.025.298-.49 0-.465-3.117.254-6.248.256-9.369.074a80.748 80.748 0 0 1-2.662-.199c-.297-.027-.295.438 0 .465z" fill="#1E272E"/>
    <path d="M314.203 86.891c-.391-.13-.819.113-1.138.317a73.045 73.045 0 0 1-8.403 4.63 73.875 73.875 0 0 1-12.008 4.407c-.999.27-2.037.467-3.001.85-.854.342-1.648.885-2.086 1.716-.039.07-.071.147-.103.22-.074.394-.101.782-.03 1.161a61.922 61.922 0 0 0 6.373-.824 45.166 45.166 0 0 0 6.42-1.666 35.338 35.338 0 0 0 5.549-2.435 30.354 30.354 0 0 0 4.849-3.281 27.094 27.094 0 0 0 2.132-1.979c.337-.348.664-.707.982-1.076.292-.339.639-.69.797-1.118.13-.352.071-.789-.333-.924v.002z" fill="#fff"/>
    <path d="M349.744 34.669c2.797-1.551 18.372-6.471 24.204-7.813 5.832-1.34-6.297-3.627-12.719-1.63-6.423 1.999-11.482 9.443-11.482 9.443h-.003z" fill="#1B9472"/>
    <path d="M94.458 145.921c-3.404-.26-51.687-10.764-73.099-34.993l-4.988 2.426.5.393s22.872 33.347 78.035 37.837c0 0 2.956-5.402-.448-5.663z" fill="#fff"/>
    <path d="M94.428 145.958c-1.02 1.76-.883 4.104.367 5.719.076.101.199.15.317.084.098-.057.16-.219.084-.317-1.149-1.487-1.311-3.62-.367-5.252.15-.258-.25-.492-.4-.234zM21.072 111.3c.351.828.42 1.791-.089 2.57-.546.833-1.557 1.194-2.502 1.335-.295.044-.17.489.123.447.874-.128 1.754-.443 2.391-1.074.551-.543.844-1.29.822-2.062-.015-.504-.15-.988-.347-1.45-.05-.115-.219-.14-.317-.083-.12.068-.133.201-.084.317h.003z" fill="#1E272E"/>
</svg>
